<svg width="41" height="22" viewBox="0 0 41 22" fill="none" xmlns="http://www.w3.org/2000/svg">
<path d="M26.1957 1.68422C26.3489 1.19299 26.5787 0.795375 26.8851 0.491252C27.1915 0.163796 27.5234 0 27.8808 0C28.749 0 29.3745 0.152035 29.7574 0.456157C30.1404 0.76028 30.3319 1.28658 30.3319 2.03509C30.3319 2.24562 30.1532 2.84212 29.7957 3.82457C29.0042 6.04676 28.1362 8.79535 27.1915 12.0702C26.9617 12.8187 26.7702 13.4737 26.617 14.0351C26.4894 14.5965 26.3745 15.0643 26.2723 15.4386C25.6596 17.848 25.1234 19.6608 24.6638 20.8772C24.5106 21.2281 24.2425 21.5088 23.8596 21.7193C23.4766 21.9064 23.068 22 22.634 22C22.2 22 21.7659 21.9182 21.3319 21.7544C20.9234 21.5673 20.6298 21.3568 20.451 21.1228C19.6595 19.6959 18.6766 17.7544 17.5021 15.2982C16.3532 12.8187 15.4596 10.655 14.8213 8.80702C13.2383 12.4796 11.8213 16.0234 10.5702 19.4386C10.4936 19.6491 10.4043 19.8831 10.3021 20.1404C10.2255 20.3743 10.1362 20.6199 10.0341 20.8772C9.8553 21.2281 9.60002 21.5088 9.26808 21.7193C8.93613 21.9064 8.56598 22 8.15744 22C7.69786 22 7.25106 21.9182 6.81702 21.7544C6.38298 21.5673 6.08934 21.3568 5.93615 21.1228C5.60423 20.6082 5.2468 19.8129 4.86382 18.7368C4.50637 17.6608 4.02127 16.152 3.40851 14.2105L2.45106 11.2281C1.78723 9.28659 1.21278 7.29824 0.727669 5.26315C0.242559 3.22807 0 2.01169 0 1.61406C0 1.12283 0.268082 0.736859 0.804252 0.456157C1.34042 0.152035 1.87659 0 2.41276 0C2.71914 0 3.03828 0.0936028 3.3702 0.280708C3.70212 0.44448 3.91913 0.736848 4.02126 1.1579C4.91487 5.5322 6.2298 10.6082 7.96596 16.386C8.62976 14.9357 9.35742 13.1696 10.1489 11.0877C10.9659 9.00588 11.7447 6.98245 12.4851 5.01754L12.8681 3.96493C12.9702 3.61405 13.2255 3.345 13.634 3.1579C14.068 2.94737 14.5022 2.84212 14.9362 2.84212C15.4979 2.84212 15.9575 2.97081 16.3149 3.22809C16.6723 3.48537 16.9021 3.76606 17.0043 4.07019C17.0298 4.16378 17.5404 5.55554 18.5362 8.24563C19.5319 10.9357 20.7191 13.6491 22.0979 16.386C22.6085 15.0059 23.2212 12.7954 23.9362 9.7544L24.5106 7.4386C25.2 4.95904 25.7617 3.04097 26.1957 1.68422Z" fill="#B9BECB"/>
<path d="M36.9667 9.50681C36.1926 9.50681 35.4932 9.63397 34.8685 9.88828C34.2438 10.1299 33.7142 10.4923 33.2796 10.9755C32.8451 11.446 32.5123 12.0245 32.2815 12.7112C32.0506 13.3851 31.9352 14.148 31.9352 15C31.9352 16.119 32.1185 17.0917 32.4852 17.9183C32.8654 18.7448 33.4222 19.3806 34.1556 19.8256C34.9025 20.2707 35.8327 20.4932 36.9463 20.4932C37.5846 20.4932 38.1889 20.4423 38.7593 20.3406C39.3296 20.2389 39.8864 20.1117 40.4296 19.9591V21.4468C39.8864 21.6376 39.3228 21.7775 38.7389 21.8665C38.1685 21.9555 37.4827 22 36.6815 22C35.2012 22 33.9654 21.7139 32.9741 21.1417C31.9827 20.5695 31.2358 19.7557 30.7333 18.7003C30.2444 17.6449 30 16.4051 30 14.9809C30 13.951 30.1494 13.01 30.4481 12.158C30.7605 11.3061 31.2086 10.5686 31.7926 9.9455C32.3901 9.32243 33.1234 8.84559 33.9926 8.51498C34.8617 8.17166 35.8599 8 36.987 8C37.7339 8 38.4537 8.06995 39.1463 8.20982C39.8389 8.34969 40.4568 8.54678 41 8.8011L40.2667 10.2507C39.8185 10.0599 39.3161 9.88829 38.7593 9.7357C38.2161 9.58311 37.6185 9.50681 36.9667 9.50681Z" fill="#B9BECB"/>
</svg>
