<svg width="25" height="25" viewBox="0 0 25 25" fill="none" xmlns="http://www.w3.org/2000/svg">
<path d="M24.3796 7.6201L17.3773 0.619444C17.161 0.402368 16.9 0.235116 16.6124 0.129363C16.3248 0.0236101 16.0176 -0.018092 15.7122 0.00716468C15.4068 0.0324213 15.1106 0.124034 14.8443 0.275598C14.578 0.427167 14.348 0.635036 14.1703 0.884695L7.92034 9.65723C7.90351 9.68009 7.88181 9.69889 7.85673 9.71225C7.8317 9.72561 7.80402 9.73318 7.77567 9.73439L5.08953 9.75368C4.67417 9.75706 4.26903 9.88312 3.92513 10.1161C3.58124 10.349 3.31388 10.6785 3.15667 11.063C2.99945 11.4475 2.95947 11.8699 3.04165 12.2771C3.12387 12.6843 3.32463 13.0581 3.61866 13.3514L6.95102 16.6839L8.31579 18.0488L11.6481 21.3813C11.9415 21.6754 12.3153 21.8761 12.7225 21.9583C13.1296 22.0406 13.552 22.0005 13.9365 21.8433C14.321 21.6861 14.6504 21.4188 14.8834 21.0748C15.1163 20.7309 15.2424 20.3258 15.2457 19.9104L15.265 17.2241C15.2663 17.1958 15.2739 17.1681 15.2872 17.143C15.3006 17.118 15.3193 17.0962 15.3422 17.0794L24.1143 10.8291C24.3637 10.6509 24.5713 10.4205 24.7228 10.154C24.8744 9.88756 24.9662 9.59135 24.992 9.28588C25.0188 8.98026 24.9778 8.67252 24.8719 8.38455C24.7661 8.09664 24.5979 7.83558 24.3796 7.6201Z" fill="#9BA0AC"/>
<path d="M8 18.3007L1.57007 24.7306C1.39759 24.9031 1.16365 25 0.919719 25C0.675795 25 0.441854 24.9031 0.269372 24.7306C0.0968856 24.5581 0 24.3242 0 24.0803C0 23.8363 0.0968856 23.6024 0.269372 23.4299L6.69931 17L8 18.3007Z" fill="#9BA0AC"/>
</svg>
