<svg width="100" height="100" viewBox="0 0 100 100" fill="none" xmlns="http://www.w3.org/2000/svg">
<g clip-path="url(#clip0_9_2)">
<path d="M28.7876 54.5498C28.7819 52.9182 28.7381 51.3388 28.7308 49.8276C28.6287 51.4855 28.6486 53.0584 28.7876 54.5498ZM53.0751 75.8679L53.063 75.8692C53.067 75.8683 53.0699 75.8692 53.0751 75.8679Z" fill="#002738"/>
<path d="M49.9377 0.0528564C22.4359 0.0528564 0.14917 22.3392 0.14917 49.8527C0.14917 68.235 10.1075 84.2903 24.9235 92.9181C26.4201 88.7045 28.8574 85.2711 31.895 82.6267C34.3031 80.5099 37.1469 78.8402 40.3307 77.6977C34.5422 72.6578 34.3728 71.2855 36.3606 71.4748C34.5205 70.0448 32.9589 68.2886 31.7539 66.2938C6.22379 64.3773 27.3081 14.2508 49.9721 26.1645C59.5471 21.1294 68.7439 27.1072 74.3257 35.8607C82.03 47.8259 82.9803 64.988 68.686 66.2719C67.3802 68.4417 65.7011 70.2484 63.7729 71.6944C64.7589 72.0264 64.3386 73.6462 60.989 77.7221H60.9635C64.138 78.8694 66.9733 80.5415 69.3737 82.6591C72.0327 84.9829 74.2285 87.9142 75.7337 91.4442C75.747 91.4758 75.7592 91.5086 75.773 91.5402C75.8727 91.7765 75.9728 92.0124 76.0664 92.2543C90.2728 83.4822 99.7375 67.7738 99.7375 49.8527C99.7379 22.3392 77.4508 0.0528564 49.9377 0.0528564Z" fill="#858C8F"/>
<path d="M75.734 91.4441C74.2284 87.9142 72.0327 84.9833 69.3741 82.659C72.0955 85.0595 74.2605 88.0281 75.734 91.4441ZM31.8953 82.627C28.8578 85.271 26.4205 88.7045 24.9238 92.9185L24.9246 92.9189C26.3865 88.8642 28.7743 85.3703 31.8953 82.627ZM53.0278 75.8728C53.0397 75.8729 53.0515 75.8717 53.0631 75.8691L53.0753 75.8679C53.9101 75.6932 61.7635 71.0176 63.7728 71.6944C65.7011 70.2484 67.3801 68.4417 68.6859 66.2719C68.2012 66.3152 67.7011 66.3428 67.1808 66.3489C70.5696 61.4321 72.2811 55.3895 71.2704 47.4628L50.2019 47.5661H49.949V47.5649L28.9494 47.4628C28.8509 48.2483 28.778 49.0368 28.731 49.8271C28.7383 51.3384 28.7816 52.9173 28.7877 54.5494C29.2169 59.1573 30.7403 63.0135 33.039 66.3485C32.6103 66.3434 32.1818 66.3249 31.7543 66.2929C32.9592 68.2878 34.5207 70.044 36.361 71.4739C39.4439 71.7673 47.7159 75.8172 48.2606 75.7682C50.1905 76.0105 51.0748 75.9299 53.0278 75.8728ZM76.0615 92.2571L76.0667 92.2539C75.9735 92.0119 75.873 91.776 75.7733 91.5398C75.8742 91.776 75.9675 92.0168 76.0615 92.2571Z" fill="#FCE9EA"/>
<path d="M75.734 91.4441C74.2605 88.0281 72.0951 85.0595 69.3741 82.6591C66.9737 80.5415 64.1384 78.8694 60.9639 77.722L40.3457 77.7107C40.341 77.7064 40.3363 77.7022 40.3315 77.6981C37.1477 78.8406 34.3039 80.5103 31.8957 82.627C28.7743 85.3707 26.3869 88.8646 24.925 92.9189C32.2751 97.199 40.819 99.6525 49.938 99.6525C59.5207 99.6525 68.4679 96.9449 76.0615 92.2575C75.9694 92.0168 75.8734 91.7777 75.7733 91.5402L75.734 91.4441Z" fill="#004861"/>
<path d="M60.9638 77.722H60.9893C64.3393 73.6462 64.7592 72.0263 63.7731 71.6944C61.7638 71.0176 53.91 75.6932 53.0756 75.8679C53.0703 75.8691 53.0675 75.8683 53.0634 75.8691C53.0518 75.8717 53.04 75.873 53.0282 75.8728C51.0756 75.9303 50.1908 76.0106 48.2609 75.769C47.7163 75.8181 39.4442 71.7682 36.3613 71.4748C34.3739 71.2855 34.5429 72.6582 40.3314 77.6977C40.336 77.702 40.3407 77.7062 40.3456 77.7103L60.9638 77.722Z" fill="#C9CACA"/>
<path d="M74.3258 35.8606C68.744 27.1072 59.5471 21.1294 49.9722 26.1645C59.4843 21.1638 68.703 27.1274 74.3258 35.8606Z" fill="#FF5B47"/>
<path d="M28.7877 54.5498C28.6491 53.058 28.6288 51.4851 28.7309 49.8276C28.7784 49.0567 28.8464 48.2721 28.9494 47.4632L49.949 47.5653V26.1645H49.9721C27.308 14.2507 6.22415 64.3768 31.7539 66.2938C32.1697 66.325 32.598 66.344 33.0386 66.3493C30.7403 63.0139 29.2165 59.1581 28.7877 54.5498Z" fill="#FF5B47"/>
<path d="M49.9495 47.5653V47.5665H50.2024L71.2708 47.4632C72.2816 55.3899 70.5701 61.4325 67.1812 66.3493C67.6838 66.3429 68.1859 66.3172 68.6864 66.2723C82.9808 64.9884 82.0304 47.8263 74.3262 35.8611C68.7034 27.1278 59.4847 21.1643 49.9726 26.1649H49.9495V47.5653Z" fill="#EF3520"/>
</g>
<defs>
<clipPath id="clip0_9_2">
<rect width="100" height="100" fill="white"/>
</clipPath>
</defs>
</svg>
